<svg width="22" height="22" viewBox="0 0 22 22" fill="none" xmlns="http://www.w3.org/2000/svg">
<path d="M19.405 1.88828C18.7479 1.7751 18.0826 1.71685 17.4158 1.71412C15.141 1.71225 12.9136 2.36456 10.9991 3.59328C9.07978 2.38069 6.85274 1.74439 4.58248 1.75995C3.91573 1.76268 3.25038 1.82094 2.59331 1.93412C2.37808 1.97122 2.18317 2.08395 2.04369 2.25201C1.9042 2.42007 1.8293 2.6324 1.83248 2.85078V13.8508C1.83051 13.9855 1.85826 14.1189 1.91374 14.2417C1.96922 14.3644 2.05107 14.4734 2.15347 14.561C2.25587 14.6485 2.37629 14.7124 2.50618 14.7481C2.63607 14.7837 2.77223 14.7904 2.90498 14.7674C4.21858 14.54 5.56441 14.5777 6.8632 14.8784C8.16199 15.1791 9.38748 15.7367 10.4675 16.5183L10.5775 16.5824H10.6783C10.78 16.6248 10.889 16.6466 10.9991 16.6466C11.1093 16.6466 11.2183 16.6248 11.32 16.5824H11.4208L11.5308 16.5183C12.6033 15.7192 13.8252 15.1436 15.1243 14.8255C16.4233 14.5075 17.773 14.4534 19.0933 14.6666C19.226 14.6895 19.3622 14.6829 19.4921 14.6472C19.622 14.6115 19.7424 14.5477 19.8448 14.4601C19.9472 14.3726 20.0291 14.2636 20.0845 14.1409C20.14 14.0181 20.1678 13.8846 20.1658 13.7499V2.74995C20.1563 2.54109 20.0756 2.34177 19.9372 2.18504C19.7989 2.02832 19.611 1.92361 19.405 1.88828ZM10.0825 14.0708C8.38654 13.1786 6.49878 12.7129 4.58248 12.7141C4.27998 12.7141 3.97748 12.7141 3.66581 12.7141V3.54745C3.97111 3.52985 4.27717 3.52985 4.58248 3.54745C6.53808 3.54529 8.45101 4.11917 10.0825 5.19745V14.0708ZM18.3325 12.7508C18.0208 12.7508 17.7183 12.7508 17.4158 12.7508C15.4995 12.7496 13.6117 13.2152 11.9158 14.1074V5.19745C13.5473 4.11917 15.4602 3.54529 17.4158 3.54745C17.7211 3.52985 18.0272 3.52985 18.3325 3.54745V12.7508ZM19.405 16.5549C18.7479 16.4418 18.0826 16.3835 17.4158 16.3808C15.141 16.3789 12.9136 17.0312 10.9991 18.2599C9.0847 17.0312 6.85731 16.3789 4.58248 16.3808C3.91573 16.3835 3.25038 16.4418 2.59331 16.5549C2.47398 16.5739 2.35958 16.6162 2.25667 16.6795C2.15377 16.7428 2.06439 16.8259 1.99369 16.9238C1.92298 17.0218 1.87234 17.1328 1.84467 17.2504C1.817 17.368 1.81286 17.4899 1.83248 17.6091C1.87906 17.8472 2.01809 18.057 2.21912 18.1928C2.42014 18.3285 2.66677 18.379 2.90498 18.3333C4.21858 18.1058 5.56441 18.1436 6.8632 18.4443C8.16199 18.745 9.38748 19.3025 10.4675 20.0841C10.6227 20.1947 10.8086 20.254 10.9991 20.254C11.1897 20.254 11.3756 20.1947 11.5308 20.0841C12.6108 19.3025 13.8363 18.745 15.1351 18.4443C16.4339 18.1436 17.7797 18.1058 19.0933 18.3333C19.3315 18.379 19.5781 18.3285 19.7792 18.1928C19.9802 18.057 20.1192 17.8472 20.1658 17.6091C20.1854 17.4899 20.1813 17.368 20.1536 17.2504C20.1259 17.1328 20.0753 17.0218 20.0046 16.9238C19.9339 16.8259 19.8445 16.7428 19.7416 16.6795C19.6387 16.6162 19.5243 16.5739 19.405 16.5549Z" fill="#2E2E2E"/>
</svg>
