<svg width="22" height="22" viewBox="0 0 22 22" fill="none" xmlns="http://www.w3.org/2000/svg">
<path d="M19.8994 18.5992L5.23271 3.93251L3.39938 2.09917C3.22676 1.92656 2.99265 1.82959 2.74854 1.82959C2.50443 1.82959 2.27032 1.92656 2.09771 2.09917C1.9251 2.27179 1.82813 2.5059 1.82813 2.75001C1.82812 2.99412 1.9251 3.22823 2.09771 3.40084L3.66521 4.95917V10.89C3.66585 12.2027 3.97974 13.4963 4.5808 14.6634C5.18185 15.8304 6.05272 16.8372 7.12104 17.6L10.4669 19.9925C10.6221 20.103 10.808 20.1624 10.9985 20.1624C11.1891 20.1624 11.375 20.103 11.5302 19.9925L14.876 17.6C15.153 17.4041 15.4164 17.1898 15.6644 16.9583L18.5977 19.9008C18.6829 19.9868 18.7843 20.055 18.896 20.1015C19.0077 20.148 19.1275 20.172 19.2485 20.172C19.3696 20.172 19.4894 20.148 19.6011 20.1015C19.7128 20.055 19.8142 19.9868 19.8994 19.9008C19.9853 19.8156 20.0535 19.7142 20.1 19.6025C20.1466 19.4908 20.1705 19.371 20.1705 19.25C20.1705 19.129 20.1466 19.0092 20.1 18.8975C20.0535 18.7858 19.9853 18.6844 19.8994 18.5992ZM13.8127 16.115L10.9985 18.1225L8.18438 16.115C7.35299 15.5209 6.67553 14.7368 6.20836 13.8279C5.7412 12.9191 5.49784 11.9119 5.49854 10.89V6.79251L14.3627 15.6658C14.1885 15.8217 14.0052 15.9683 13.8127 16.115ZM9.22938 4.64751C9.84565 4.44115 10.4386 4.17078 10.9985 3.84084C12.6478 4.84436 14.576 5.29106 16.4985 5.11501V10.89C16.4991 11.2525 16.4685 11.6144 16.4069 11.9717C16.3873 12.0909 16.3914 12.2128 16.4191 12.3304C16.4467 12.448 16.4974 12.559 16.5681 12.657C16.6388 12.7549 16.7282 12.838 16.8311 12.9013C16.934 12.9646 17.0484 13.0069 17.1677 13.0258H17.3144C17.5341 13.0287 17.7475 12.9525 17.9158 12.8111C18.084 12.6698 18.1959 12.4727 18.231 12.2558C18.303 11.801 18.3398 11.3413 18.341 10.8808V4.06084C18.3401 3.92544 18.3093 3.79193 18.2506 3.66988C18.192 3.54784 18.107 3.44031 18.0019 3.35501C17.8972 3.2686 17.7747 3.20651 17.6431 3.17322C17.5115 3.13993 17.3742 3.13627 17.241 3.16251C16.2605 3.37522 15.2463 3.38156 14.2632 3.18114C13.28 2.98072 12.3493 2.57792 11.5302 1.99834C11.3768 1.89189 11.1945 1.83485 11.0077 1.83485C10.821 1.83485 10.6387 1.89189 10.4852 1.99834C9.92002 2.38822 9.30289 2.69678 8.65188 2.91501C8.53752 2.95353 8.43186 3.0142 8.34095 3.09355C8.25004 3.1729 8.17565 3.26938 8.12202 3.37749C8.06839 3.48559 8.03658 3.6032 8.02841 3.72359C8.02024 3.84399 8.03586 3.96481 8.07438 4.07917C8.1129 4.19353 8.17357 4.29919 8.25292 4.3901C8.33227 4.48101 8.42875 4.5554 8.53686 4.60903C8.75518 4.71733 9.00758 4.73447 9.23854 4.65667L9.22938 4.64751Z" fill="#2E2E2E"/>
</svg>
