<svg width="22" height="22" viewBox="0 0 22 22" fill="none" xmlns="http://www.w3.org/2000/svg">
<path d="M12.8346 8.25008H9.16797C8.92485 8.25008 8.6917 8.34666 8.51979 8.51857C8.34788 8.69047 8.2513 8.92363 8.2513 9.16675V20.1667C8.2513 20.4099 8.34788 20.643 8.51979 20.8149C8.6917 20.9868 8.92485 21.0834 9.16797 21.0834H12.8346C13.0778 21.0834 13.3109 20.9868 13.4828 20.8149C13.6547 20.643 13.7513 20.4099 13.7513 20.1667V9.16675C13.7513 8.92363 13.6547 8.69047 13.4828 8.51857C13.3109 8.34666 13.0778 8.25008 12.8346 8.25008ZM11.918 19.2501H10.0846V10.0834H11.918V19.2501ZM20.168 0.916748H16.5013C16.2582 0.916748 16.025 1.01333 15.8531 1.18523C15.6812 1.35714 15.5846 1.5903 15.5846 1.83341V20.1667C15.5846 20.4099 15.6812 20.643 15.8531 20.8149C16.025 20.9868 16.2582 21.0834 16.5013 21.0834H20.168C20.4111 21.0834 20.6442 20.9868 20.8162 20.8149C20.9881 20.643 21.0846 20.4099 21.0846 20.1667V1.83341C21.0846 1.5903 20.9881 1.35714 20.8162 1.18523C20.6442 1.01333 20.4111 0.916748 20.168 0.916748ZM19.2513 19.2501H17.418V2.75008H19.2513V19.2501ZM5.5013 13.7501H1.83464C1.59152 13.7501 1.35836 13.8467 1.18645 14.0186C1.01455 14.1905 0.917969 14.4236 0.917969 14.6667V20.1667C0.917969 20.4099 1.01455 20.643 1.18645 20.8149C1.35836 20.9868 1.59152 21.0834 1.83464 21.0834H5.5013C5.74442 21.0834 5.97757 20.9868 6.14948 20.8149C6.32139 20.643 6.41797 20.4099 6.41797 20.1667V14.6667C6.41797 14.4236 6.32139 14.1905 6.14948 14.0186C5.97757 13.8467 5.74442 13.7501 5.5013 13.7501ZM4.58464 19.2501H2.7513V15.5834H4.58464V19.2501Z" fill="#2E2E2E"/>
</svg>
