<svg width="20" height="19" viewBox="0 0 20 19" fill="none" xmlns="http://www.w3.org/2000/svg">
<path d="M7.49833 10.0833C8.0025 10.0833 8.415 10.4958 8.415 11C8.415 11.5042 8.0025 11.9167 7.49833 11.9167C6.99417 11.9167 6.58167 11.5042 6.58167 11C6.58167 10.4958 6.99417 10.0833 7.49833 10.0833ZM7.49833 8.25C5.97667 8.25 4.74833 9.47833 4.74833 11C4.74833 12.5217 5.97667 13.75 7.49833 13.75C9.02 13.75 10.2483 12.5217 10.2483 11C10.2483 9.47833 9.02 8.25 7.49833 8.25ZM15.29 6.41667L16.2892 4.2075L18.4983 3.20833L16.2892 2.20917L15.29 0L14.2908 2.20917L12.0817 3.20833L14.2908 4.2075L15.29 6.41667ZM17.8383 9.82667L17.1233 8.25L16.4083 9.82667L14.8317 10.5417L16.4083 11.2567L17.1233 12.8333L17.8383 11.2567L19.415 10.5417L17.8383 9.82667ZM13.2275 11C13.2275 10.89 13.2275 10.7708 13.2183 10.6608L14.9967 9.31333L12.705 5.34417L10.6517 6.20583C10.4683 6.08667 10.2667 5.9675 10.065 5.86667L9.79 3.66667H5.20667L4.93167 5.87583C4.73 5.97667 4.5375 6.09583 4.345 6.215L2.29167 5.34417L0 9.31333L1.77833 10.6608C1.76917 10.7708 1.76917 10.89 1.76917 11C1.76917 11.11 1.76917 11.2292 1.77833 11.3392L0 12.6867L2.29167 16.6558L4.345 15.7942C4.52833 15.9133 4.73 16.0325 4.93167 16.1333L5.20667 18.3333H9.79L10.065 16.1242C10.2667 16.0233 10.4592 15.9133 10.6517 15.785L12.705 16.6467L14.9967 12.6775L13.2183 11.33C13.2275 11.2292 13.2275 11.11 13.2275 11ZM11.9258 14.3367L10.34 13.6675C9.82667 14.2175 9.14833 14.6208 8.3875 14.795L8.1675 16.5H6.82917L6.61833 14.795C5.8575 14.6208 5.17917 14.2175 4.66583 13.6675L3.08 14.3367L2.41083 13.1725L3.77667 12.1367C3.66667 11.7792 3.61167 11.4033 3.61167 11.0092C3.61167 10.615 3.66667 10.2392 3.77667 9.88167L2.41083 8.84583L3.08 7.68167L4.66583 8.35083C5.17917 7.80083 5.8575 7.3975 6.61833 7.22333L6.82917 5.5H8.17667L8.3875 7.205C9.14833 7.37917 9.82667 7.7825 10.34 8.3325L11.9258 7.66333L12.595 8.8275L11.2292 9.86333C11.3392 10.2208 11.3942 10.5967 11.3942 10.9908C11.3942 11.385 11.3392 11.7608 11.2292 12.1183L12.595 13.1542L11.9258 14.3367Z" fill="#2E2E2E"/>
</svg>
